<svg id="visual" viewBox="0 0 900 300" width="900" height="350" xmlns="http://www.w3.org/2000/svg" xmlns:xlink="http://www.w3.org/1999/xlink" version="1.1"><g stroke-width="1" stroke-linejoin="bevel"><path d="M398 214L332 171L363 298.5Z" fill="#a09f0f" stroke="#a09f0f"></path><path d="M332 171L260 256.5L363 298.5Z" fill="#6d6e0d" stroke="#6d6e0d"></path><path d="M260 256.5L305 350L363 298.5Z" fill="#ebe50a" stroke="#ebe50a"></path><path d="M402 55.5L311 120.5L332 171Z" fill="#5c5e0c" stroke="#5c5e0c"></path><path d="M332 171L196 165L260 256.5Z" fill="#d8d30c" stroke="#d8d30c"></path><path d="M305 350L411 350L363 298.5Z" fill="#fff706" stroke="#fff706"></path><path d="M363 298.5L411 350L398 214Z" fill="#7d7e0e" stroke="#7d7e0e"></path><path d="M196 165L194 273.5L260 256.5Z" fill="#4d4f0a" stroke="#4d4f0a"></path><path d="M260 256.5L194 273.5L305 350Z" fill="#8e8e0f" stroke="#8e8e0f"></path><path d="M311 120.5L196 165L332 171Z" fill="#fff706" stroke="#fff706"></path><path d="M411 350L519 271.5L398 214Z" fill="#4d4f0a" stroke="#4d4f0a"></path><path d="M398 214L402 55.5L332 171Z" fill="#c5c10e" stroke="#c5c10e"></path><path d="M519 271.5L524 209L398 214Z" fill="#5c5e0c" stroke="#5c5e0c"></path><path d="M411 350L491 350L519 271.5Z" fill="#4d4f0a" stroke="#4d4f0a"></path><path d="M524 209L483 114.5L398 214Z" fill="#7d7e0e" stroke="#7d7e0e"></path><path d="M300 0L219 84.5L311 120.5Z" fill="#d8d30c" stroke="#d8d30c"></path><path d="M311 120.5L219 84.5L196 165Z" fill="#4d4f0a" stroke="#4d4f0a"></path><path d="M483 114.5L402 55.5L398 214Z" fill="#fff706" stroke="#fff706"></path><path d="M196 165L136 275.5L194 273.5Z" fill="#7d7e0e" stroke="#7d7e0e"></path><path d="M194 273.5L160 350L305 350Z" fill="#4d4f0a" stroke="#4d4f0a"></path><path d="M65 192L136 275.5L196 165Z" fill="#a09f0f" stroke="#a09f0f"></path><path d="M136 275.5L160 350L194 273.5Z" fill="#8e8e0f" stroke="#8e8e0f"></path><path d="M402 55.5L300 0L311 120.5Z" fill="#b2b00f" stroke="#b2b00f"></path><path d="M508 0L399 0L402 55.5Z" fill="#7d7e0e" stroke="#7d7e0e"></path><path d="M402 55.5L399 0L300 0Z" fill="#6d6e0d" stroke="#6d6e0d"></path><path d="M136 275.5L112 350L160 350Z" fill="#d8d30c" stroke="#d8d30c"></path><path d="M491 350L565 350L519 271.5Z" fill="#7d7e0e" stroke="#7d7e0e"></path><path d="M519 271.5L593 282.5L524 209Z" fill="#8e8e0f" stroke="#8e8e0f"></path><path d="M300 0L230 0L219 84.5Z" fill="#a09f0f" stroke="#a09f0f"></path><path d="M121 56.5L65 192L196 165Z" fill="#b2b00f" stroke="#b2b00f"></path><path d="M565 350L593 282.5L519 271.5Z" fill="#5c5e0c" stroke="#5c5e0c"></path><path d="M524 209L601 154L483 114.5Z" fill="#ebe50a" stroke="#ebe50a"></path><path d="M121 56.5L196 165L219 84.5Z" fill="#7d7e0e" stroke="#7d7e0e"></path><path d="M136 275.5L0 246.5L112 350Z" fill="#c5c10e" stroke="#c5c10e"></path><path d="M593 282.5L601 154L524 209Z" fill="#d8d30c" stroke="#d8d30c"></path><path d="M483 114.5L508 0L402 55.5Z" fill="#ebe50a" stroke="#ebe50a"></path><path d="M230 0L121 56.5L219 84.5Z" fill="#ebe50a" stroke="#ebe50a"></path><path d="M628 67.5L508 0L483 114.5Z" fill="#8e8e0f" stroke="#8e8e0f"></path><path d="M0 177L0 246.5L65 192Z" fill="#8e8e0f" stroke="#8e8e0f"></path><path d="M65 192L0 246.5L136 275.5Z" fill="#a09f0f" stroke="#a09f0f"></path><path d="M685 56.5L628 67.5L601 154Z" fill="#fff706" stroke="#fff706"></path><path d="M601 154L628 67.5L483 114.5Z" fill="#a09f0f" stroke="#a09f0f"></path><path d="M0 97.5L0 177L65 192Z" fill="#7d7e0e" stroke="#7d7e0e"></path><path d="M230 0L85 0L121 56.5Z" fill="#8e8e0f" stroke="#8e8e0f"></path><path d="M121 56.5L0 97.5L65 192Z" fill="#fff706" stroke="#fff706"></path><path d="M0 246.5L0 350L112 350Z" fill="#7d7e0e" stroke="#7d7e0e"></path><path d="M565 350L674 350L593 282.5Z" fill="#7d7e0e" stroke="#7d7e0e"></path><path d="M593 282.5L708 212L601 154Z" fill="#fff706" stroke="#fff706"></path><path d="M674 350L694 285.5L593 282.5Z" fill="#5c5e0c" stroke="#5c5e0c"></path><path d="M85 0L0 97.5L121 56.5Z" fill="#8e8e0f" stroke="#8e8e0f"></path><path d="M694 285.5L708 212L593 282.5Z" fill="#fff706" stroke="#fff706"></path><path d="M685 56.5L637 0L628 67.5Z" fill="#5c5e0c" stroke="#5c5e0c"></path><path d="M628 67.5L637 0L508 0Z" fill="#ebe50a" stroke="#ebe50a"></path><path d="M708 212L685 56.5L601 154Z" fill="#c5c10e" stroke="#c5c10e"></path><path d="M85 0L0 0L0 97.5Z" fill="#8e8e0f" stroke="#8e8e0f"></path><path d="M765 350L771 253.5L694 285.5Z" fill="#fff706" stroke="#fff706"></path><path d="M694 285.5L771 253.5L708 212Z" fill="#ebe50a" stroke="#ebe50a"></path><path d="M780 86.5L734 0L685 56.5Z" fill="#4d4f0a" stroke="#4d4f0a"></path><path d="M674 350L765 350L694 285.5Z" fill="#6d6e0d" stroke="#6d6e0d"></path><path d="M780 86.5L685 56.5L708 212Z" fill="#6d6e0d" stroke="#6d6e0d"></path><path d="M685 56.5L734 0L637 0Z" fill="#d8d30c" stroke="#d8d30c"></path><path d="M823 163L780 86.5L708 212Z" fill="#c5c10e" stroke="#c5c10e"></path><path d="M771 253.5L823 163L708 212Z" fill="#4d4f0a" stroke="#4d4f0a"></path><path d="M780 86.5L809 0L734 0Z" fill="#6d6e0d" stroke="#6d6e0d"></path><path d="M900 287.5L823 163L771 253.5Z" fill="#d8d30c" stroke="#d8d30c"></path><path d="M900 102.5L809 0L780 86.5Z" fill="#8e8e0f" stroke="#8e8e0f"></path><path d="M765 350L900 287.5L771 253.5Z" fill="#fff706" stroke="#fff706"></path><path d="M823 163L900 102.5L780 86.5Z" fill="#fff706" stroke="#fff706"></path><path d="M900 287.5L900 147L823 163Z" fill="#ebe50a" stroke="#ebe50a"></path><path d="M765 350L900 350L900 287.5Z" fill="#c5c10e" stroke="#c5c10e"></path><path d="M900 147L900 102.5L823 163Z" fill="#a09f0f" stroke="#a09f0f"></path><path d="M900 102.5L900 0L809 0Z" fill="#b2b00f" stroke="#b2b00f"></path></g></svg>